<svg width="754" height="310" viewBox="0 0 754 310" fill="none" xmlns="http://www.w3.org/2000/svg">
<circle r="98.223" transform="matrix(-1 0 0 1 587.586 211.413)" fill="#EB5757"/>
<rect width="51.5138" height="158.092" rx="25.7569" transform="matrix(-0.931333 -0.36417 -0.36417 0.931333 645.584 18.7598)" fill="#EB5757"/>
<rect width="51.5138" height="158.092" rx="25.7569" transform="matrix(-0.65484 -0.755768 -0.755768 0.65484 754 69.0845)" fill="#EB5757"/>
<path d="M130.506 140.105C130.506 142.154 128.843 143.815 126.792 143.815H85.1436C83.092 143.815 81.4289 145.476 81.4289 147.525V273.41C81.4289 275.459 79.7658 277.12 77.7142 277.12H52.1319C50.0803 277.12 48.4172 275.459 48.4172 273.41V147.525C48.4172 145.476 46.754 143.815 44.7025 143.815H3.71473C1.66314 143.815 0 142.154 0 140.105V120.82C0 118.771 1.66314 117.11 3.71473 117.11H126.792C128.843 117.11 130.506 118.771 130.506 120.82V140.105Z" fill="#4F4F4F"/>
<path d="M192.238 279.318C174.779 279.318 160.547 273.97 149.543 263.273C138.613 252.576 133.147 238.326 133.147 220.523V217.446C133.147 205.504 135.458 194.844 140.08 185.466C144.701 176.015 151.23 168.761 159.667 163.706C168.176 158.578 177.86 156.013 188.717 156.013C205.003 156.013 217.804 161.142 227.121 171.399C236.511 181.656 241.206 196.199 241.206 215.028V224.286C241.206 226.335 239.542 227.996 237.491 227.996H169.626C167.382 227.996 165.63 229.978 166.171 232.154C167.628 238.017 170.448 242.858 174.632 246.679C179.84 251.368 186.406 253.712 194.329 253.712C204.927 253.712 213.521 250.395 220.112 243.761C221.746 242.116 224.473 242.007 226.019 243.735L236.706 255.687C237.858 256.975 237.98 258.898 236.893 260.242C232.339 265.868 226.477 270.359 219.308 273.713C211.165 277.45 202.142 279.318 192.238 279.318ZM188.607 181.729C182.298 181.729 177.163 183.854 173.201 188.103C170.031 191.569 167.787 196.252 166.47 202.153C165.98 204.351 167.73 206.346 169.985 206.346H207.424C208.821 206.346 209.955 205.215 209.955 203.819C209.808 196.785 207.9 191.364 204.232 187.554C200.565 183.671 195.356 181.729 188.607 181.729Z" fill="#4F4F4F"/>
<path d="M308.88 253.712C314.748 253.712 319.517 252.1 323.185 248.877C325.993 246.408 327.77 243.317 328.514 239.603C328.908 237.633 330.509 236.019 332.521 236.019H354.979C357.043 236.019 358.73 237.703 358.536 239.756C357.912 246.379 355.775 252.533 352.125 258.218C347.797 264.885 341.855 270.087 334.299 273.823C326.816 277.486 318.526 279.318 309.43 279.318C292.41 279.318 278.986 273.933 269.156 263.163C259.325 252.32 254.41 237.374 254.41 218.325V216.237C254.41 197.921 259.289 183.305 269.045 172.388C278.802 161.472 292.19 156.013 309.21 156.013C324.102 156.013 336.023 160.263 344.972 168.761C353.18 176.425 357.715 186.423 358.579 198.754C358.723 200.813 357.04 202.5 354.974 202.5H332.534C330.517 202.5 328.902 200.884 328.599 198.892C327.912 194.369 326.107 190.589 323.185 187.554C319.517 183.671 314.675 181.729 308.66 181.729C301.25 181.729 295.638 184.44 291.824 189.862C288.082 195.21 286.212 203.929 286.212 216.017V219.314C286.212 231.549 288.082 240.341 291.824 245.69C295.565 251.038 301.25 253.712 308.88 253.712Z" fill="#4F4F4F"/>
<path d="M407.915 160.932C407.915 164.402 412.51 166.172 415.267 164.06C422.268 158.696 430.418 156.013 439.716 156.013C465.539 156.013 478.633 170.996 479 200.961V273.41C479 275.459 477.337 277.12 475.285 277.12H450.913C448.862 277.12 447.199 275.459 447.199 273.41V201.841C447.199 195.027 445.732 190.008 442.797 186.785C439.863 183.488 434.984 181.839 428.162 181.839C419.223 181.839 412.648 185.144 408.436 191.754C408.084 192.306 407.915 192.954 407.915 193.61V273.41C407.915 275.459 406.252 277.12 404.2 277.12H379.828C377.777 277.12 376.113 275.459 376.113 273.41V112.028C376.113 109.979 377.777 108.318 379.828 108.318H404.2C406.252 108.318 407.915 109.979 407.915 112.028V160.932Z" fill="#4F4F4F"/>
<path d="M631 269.318C631 270.423 630.105 271.318 629 271.318H552.308C551.203 271.318 550.308 270.423 550.308 269.318V258.291C550.308 257.792 550.495 257.31 550.832 256.941L590.283 213.79C596.053 207.342 600.146 201.97 602.564 197.672C605.037 193.319 606.273 188.965 606.273 184.612C606.273 178.881 604.652 174.253 601.41 170.726C598.223 167.199 593.91 165.436 588.47 165.436C581.986 165.436 576.958 167.42 573.386 171.387C570.168 174.962 568.399 179.724 568.081 185.671C568.022 186.774 567.133 187.67 566.029 187.67H550C548.895 187.67 547.995 186.774 548.042 185.671C548.317 179.139 549.951 173.22 552.945 167.916C556.297 162.019 561.05 157.446 567.205 154.195C573.414 150.944 580.557 149.318 588.635 149.318C600.284 149.318 609.46 152.266 616.164 158.162C622.923 164.003 626.302 172.104 626.302 182.463C626.302 188.469 624.598 194.779 621.192 201.391C617.84 207.949 612.317 215.415 604.625 223.791L578.416 251.919C577.224 253.198 578.131 255.283 579.879 255.283H629C630.105 255.283 631 256.178 631 257.283V269.318Z" fill="white"/>
</svg>
