<svg xmlns="http://www.w3.org/2000/svg" width="24" height="24" fill="none" viewBox="0 0 24 24">
    <path fill="#fff" d="M13.399 7.646c.096-.269.481-.269.577 0l.264.735c.031.086.1.154.187.184l.744.26c.272.096.272.476 0 .571l-.744.26c-.088.031-.156.1-.187.185l-.264.735c-.096.269-.481.269-.577 0l-.264-.735c-.031-.086-.1-.154-.187-.184l-.744-.26c-.272-.096-.272-.476 0-.571l.744-.26c.088-.031.156-.099.187-.185l.264-.735zM16.307 10.912c.065-.179.321-.179.386 0l.175.49c.021.058.067.103.125.123l.496.174c.181.063.181.317 0 .38l-.496.174c-.058.02-.104.065-.125.123l-.175.49c-.065.179-.321.179-.386 0l-.175-.49c-.021-.058-.067-.103-.125-.123l-.496-.174c-.181-.063-.181-.317 0-.38l.496-.174c.058-.02.104-.065.125-.123l.175-.49zM17.77 3.292c.139-.39.696-.39.836 0l.478 1.334c.045.124.144.222.27.266l1.35.473c.395.138.395.688 0 .826l-1.35.472c-.126.044-.225.142-.27.267l-.478 1.334c-.14.389-.697.389-.837 0l-.478-1.334c-.045-.125-.144-.223-.27-.267l-1.35-.472c-.394-.138-.394-.688 0-.826l1.35-.473c.126-.044.225-.142.27-.266l.478-1.334z"/>
    <path stroke="#fff" stroke-linecap="round" stroke-linejoin="round" stroke-width="1.5" d="M3 13.46C3 17.624 6.474 21 10.76 21c3.3 0 6.117-2 7.24-4.822-.89.406-1.882.633-2.93.633-3.809 0-6.897-3-6.897-6.703 0-1.548.54-2.973 1.448-4.108C5.875 6.535 3 9.671 3 13.46z"/>
</svg>
